<?xml version="1.0" encoding="UTF-8"?>
<svg id="Layer_2" data-name="Layer 2" xmlns="http://www.w3.org/2000/svg" viewBox="0 0 805.33 150.98">
  <defs>
    <style>
      .cls-1 {
        fill: #fafafa;
      }

      .cls-2 {
        fill: #ffba8f;
      }
    </style>
  </defs>
  <g id="Layer_1-2" data-name="Layer 1">
    <g>
      <g>
        <path class="cls-1" d="M301.91,107.29v-2.89c0-.75.59-1.38,1.35-1.42,3.36-.18,5.69-1.07,6.99-2.67,1.46-1.8,2.19-4.51,2.19-8.12v-30.42c0-4.97-1-9.04-3-12.21-2-3.17-5.58-4.75-10.75-4.75-.78,0-1.78.1-3,.29-1.22.2-2.56.59-4.02,1.17s-2.97,1.44-4.53,2.56c-1.42,1.02-2.73,2.35-3.91,3.99-.22.3-.3.68-.24,1.04.23,1.58.35,3.19.35,4.84v33.5c0,3.61.95,6.31,2.85,8.12,1.79,1.7,4.77,2.6,8.95,2.7.48.01.93.26,1.19.66l.04.06c.18.29.25.64.2.98l-.45,2.81c-.11.69-.71,1.2-1.41,1.2h-39.19c-.79,0-1.43-.64-1.43-1.43v-2.89c0-.75.59-1.38,1.35-1.42,3.36-.18,5.69-1.07,6.99-2.67,1.46-1.8,2.19-4.51,2.19-8.12v-30.42c0-4.97-1-9.04-3-12.21-2-3.17-5.58-4.75-10.75-4.75-.49,0-1.32.1-2.49.29-1.17.2-2.51.66-4.02,1.39-1.51.73-3.05,1.81-4.61,3.22-1.49,1.35-2.84,3.11-4.06,5.3-.12.22-.18.46-.18.71v36.48c0,3.61.88,6.31,2.63,8.12,1.65,1.7,4.72,2.6,9.22,2.7.53.01,1.02.31,1.26.78h0c.13.26.17.54.14.83l-.37,2.86c-.09.71-.7,1.24-1.41,1.24h-41.05c-.79,0-1.43-.64-1.43-1.43v-2.88c0-.76.6-1.39,1.36-1.42,3.95-.16,6.72-1.05,8.3-2.68,1.75-1.8,2.63-4.51,2.63-8.12v-41.27c0-.67-.47-1.25-1.13-1.39l-10.03-2.15c-.66-.14-1.13-.72-1.13-1.39v-2.6c0-.64.42-1.2,1.04-1.37l28.06-7.98c.46-.13.97-.02,1.33.3l.1.09c.31.27.49.66.49,1.07v13.25h.59c2.53-4.97,5.85-8.7,9.95-11.19,4.1-2.49,8.58-3.73,13.46-3.73,5.85,0,10.6,1.32,14.26,3.95,2.95,2.13,5.22,4.82,6.81,8.09.48.99,1.83,1.06,2.45.16,2.4-3.5,5.34-6.3,8.81-8.4,4.19-2.53,9.36-3.8,15.5-3.8,7.9,0,13.85,2.27,17.85,6.8,4,4.53,6,10.56,6,18.06v33.5c0,3.61.93,6.31,2.78,8.12,1.74,1.69,4.55,2.59,8.44,2.7.48.01.93.26,1.19.67l.04.06c.18.29.25.64.2.98l-.45,2.81c-.11.69-.71,1.2-1.41,1.2h-38.61c-.79,0-1.43-.64-1.43-1.43Z"/>
        <path class="cls-1" d="M413.46,90.59c.38.44.46,1.07.2,1.58-2.89,5.73-6.85,10.17-11.87,13.33-5.27,3.31-11.26,4.97-17.99,4.97-4.58,0-9-.71-13.24-2.12-4.24-1.41-8.02-3.63-11.34-6.66-3.32-3.02-5.95-6.88-7.9-11.55-1.95-4.68-2.93-10.33-2.93-16.97,0-7.02,1.17-13.02,3.51-17.99,2.34-4.97,5.29-9.04,8.85-12.21,3.56-3.17,7.41-5.48,11.55-6.95,4.14-1.46,8.02-2.19,11.63-2.19,5.27,0,9.78.71,13.53,2.12,3.75,1.42,6.82,3.36,9.21,5.85,2.39,2.49,4.17,5.41,5.34,8.78,1.03,2.95,1.6,6.15,1.73,9.59.03.8-.63,1.45-1.43,1.45h-43.52c-.71,0-1.33.53-1.41,1.24-.11.91-.21,1.79-.27,2.64-.1,1.22-.15,2.66-.15,4.31,0,5.17.73,9.46,2.19,12.87,1.46,3.41,3.29,6.14,5.49,8.19,2.19,2.05,4.56,3.49,7.09,4.31,2.53.83,4.92,1.24,7.17,1.24,4.68,0,8.9-.71,12.65-2.12,3.75-1.41,6.95-3.19,9.58-5.34l1.02.15,1.28,1.47ZM395.23,55.18c.81,0,1.46-.68,1.43-1.5-.17-4.69-1.13-8.11-2.9-10.28-1.95-2.39-5.12-3.58-9.51-3.58-1.37,0-2.83.27-4.39.8-1.56.54-3.07,1.44-4.53,2.71-1.46,1.27-2.78,2.88-3.95,4.83-.9,1.51-1.63,3.24-2.19,5.21-.26.91.44,1.81,1.38,1.81h24.66Z"/>
        <path class="cls-1" d="M483.52,90.59c.38.44.46,1.06.2,1.58-2.89,5.73-6.85,10.17-11.86,13.33-5.27,3.31-11.26,4.97-17.99,4.97-4.59,0-9-.71-13.24-2.12s-8.02-3.63-11.34-6.66c-3.32-3.02-5.95-6.88-7.9-11.55-1.95-4.68-2.92-10.33-2.92-16.97,0-7.02,1.17-13.02,3.51-17.99,2.34-4.97,5.29-9.04,8.85-12.21,3.56-3.17,7.41-5.48,11.55-6.95,4.14-1.46,8.02-2.19,11.63-2.19,5.27,0,9.78.71,13.53,2.12,3.75,1.42,6.82,3.36,9.21,5.85,2.39,2.49,4.17,5.41,5.34,8.78,1.03,2.95,1.6,6.15,1.73,9.59.03.8-.63,1.45-1.43,1.45h-43.52c-.71,0-1.33.53-1.41,1.24-.12.92-.21,1.79-.27,2.64-.1,1.22-.15,2.66-.15,4.31,0,5.17.73,9.46,2.2,12.87,1.46,3.41,3.29,6.14,5.48,8.19,2.19,2.05,4.56,3.49,7.09,4.31,2.54.83,4.92,1.24,7.17,1.24,4.68,0,8.9-.71,12.65-2.12,3.75-1.41,6.95-3.19,9.58-5.34l1.02.15,1.28,1.47ZM465.29,55.18c.81,0,1.46-.68,1.43-1.5-.17-4.69-1.13-8.11-2.9-10.28-1.95-2.39-5.12-3.58-9.51-3.58-1.37,0-2.83.27-4.39.8-1.56.54-3.07,1.44-4.54,2.71-1.46,1.27-2.78,2.88-3.95,4.83-.9,1.51-1.63,3.24-2.18,5.21-.26.91.44,1.81,1.38,1.81h24.66Z"/>
        <path class="cls-1" d="M542.9,102.09c-.06.31-.23.6-.47.81-2.74,2.38-5.81,4.22-9.21,5.52-3.56,1.36-7.48,2.05-11.77,2.05-2.83,0-5.54-.27-8.12-.8-2.59-.54-4.85-1.68-6.8-3.44-1.95-1.75-3.49-4.24-4.61-7.46-1.12-3.22-1.68-7.46-1.68-12.72v-39.38c0-.79-.64-1.43-1.43-1.43h-10.17c-.79,0-1.43-.64-1.43-1.43v-2c0-.43.19-.83.52-1.1l27.46-22.65c.26-.21.58-.33.91-.33h1.43c.79,0,1.43.64,1.43,1.43v15.72c0,.79.64,1.43,1.43,1.43h21.39c.9,0,1.58.83,1.4,1.72l-1.15,5.53c-.07.33-.25.62-.51.82l-.67.54c-.25.2-.57.31-.89.31h-19.57c-.79,0-1.43.64-1.43,1.43v37.04c0,3.8.37,6.83,1.1,9.07.73,2.24,1.71,3.93,2.93,5.05,1.22,1.12,2.61,1.83,4.17,2.12,1.56.29,3.12.44,4.68.44,1.76,0,3.63-.22,5.63-.66,2-.44,3.73-1,5.19-1.68l.34.34c.34.34.48.82.39,1.29l-.48,2.43Z"/>
        <path class="cls-1" d="M654.25,109.96l-.1-.09c-.31-.27-.49-.66-.49-1.07v-12.22h-.59c-5.07,9.26-13.07,13.9-23.99,13.9-7.9,0-13.85-2.27-17.84-6.8-4-4.53-6-10.55-6-18.06v-29.99c0-3.61-.95-6.07-2.85-7.39-1.79-1.24-4.77-1.9-8.94-1.97-.49,0-.94-.26-1.2-.67l-.05-.09c-.17-.27-.24-.6-.21-.92l.4-3.54c.07-.64.57-1.15,1.2-1.25l27.92-4.21c.07-.01.14-.02.21-.02h.81c.79,0,1.43.64,1.43,1.43v45.53c0,5.07,1,9.17,3,12.29,2,3.12,5.58,4.68,10.75,4.68.58,0,1.51-.1,2.78-.29,1.27-.19,2.65-.66,4.17-1.39,1.51-.73,3.07-1.8,4.68-3.22,1.53-1.34,2.91-3.11,4.13-5.3.12-.22.18-.46.18-.71v-32.97c0-3.61-.88-6.07-2.63-7.39-1.65-1.24-4.67-1.89-9.07-1.97-.53,0-1.03-.31-1.27-.79h0c-.12-.26-.17-.54-.14-.81l.41-3.48c.07-.63.56-1.14,1.19-1.24l27.64-4.35c.07-.01.15-.02.22-.02h.95c.79,0,1.43.64,1.43,1.43v57.09c0,.68.48,1.26,1.14,1.4l10,2.02c.66.13,1.14.72,1.14,1.4v2c0,.64-.42,1.2-1.04,1.37l-28.06,7.98c-.47.13-.97.02-1.33-.3Z"/>
        <path class="cls-1" d="M689.35,149.56v-2.9c0-.75.59-1.38,1.35-1.42,3.2-.18,5.53-1.02,6.99-2.52,1.66-1.71,2.49-4.46,2.49-8.26V50.92c0-.67-.47-1.25-1.13-1.39l-10.03-2.15c-.66-.14-1.13-.72-1.13-1.39v-2.6c0-.64.42-1.2,1.04-1.37l28.06-7.98c.46-.13.97-.02,1.33.3l.1.09c.31.27.49.66.49,1.07v12.96h.58c2.73-5.75,6.07-9.63,10.02-11.63,3.95-2,8.12-3,12.51-3,5.65,0,10.41,1.05,14.26,3.14,3.85,2.1,6.99,4.85,9.43,8.26,2.44,3.41,4.19,7.29,5.27,11.63,1.07,4.34,1.61,8.75,1.61,13.24,0,5.56-.78,10.8-2.34,15.72-1.56,4.92-3.85,9.21-6.88,12.87-3.02,3.66-6.75,6.53-11.19,8.63-4.44,2.1-9.48,3.15-15.14,3.15-.49,0-1.41-.03-2.78-.07-1.37-.05-2.93-.27-4.68-.66-1.76-.39-3.61-.98-5.56-1.76-1.03-.41-1.98-.91-2.87-1.51-.96-.65-2.25,0-2.25,1.16v26.68c0,1.85.19,3.46.58,4.83.39,1.36,1.19,2.51,2.41,3.44,1.22.93,2.95,1.61,5.19,2.05,2.06.4,4.74.62,8.04.65.54,0,1.03.31,1.27.79h0c.13.25.17.54.14.82l-.37,2.86c-.09.71-.7,1.24-1.41,1.24h-43.98c-.79,0-1.43-.64-1.43-1.43ZM718.9,91.38c0,.14.02.29.06.42,1.37,4.67,3.47,7.91,6.3,9.74,2.88,1.85,6.12,2.78,9.73,2.78,2.93,0,5.53-.8,7.83-2.41,2.29-1.61,4.24-3.78,5.85-6.51,1.61-2.73,2.85-5.95,3.73-9.65.88-3.7,1.32-7.61,1.32-11.7,0-3.61-.42-7.02-1.24-10.24-.83-3.22-2.07-6.04-3.73-8.48-1.66-2.44-3.78-4.36-6.36-5.78-2.58-1.41-5.63-2.12-9.14-2.12-2.83,0-5.51.64-8.04,1.9-2.42,1.21-4.45,3.09-6.07,5.64-.15.23-.22.5-.22.78v35.64Z"/>
        <path class="cls-1" d="M805.33,13.28c0,1.82-.33,3.52-.98,5.11-.65,1.59-1.57,2.97-2.77,4.13-1.19,1.16-2.6,2.09-4.21,2.77-1.62.68-3.39,1.02-5.32,1.02s-3.6-.34-5.19-1.02c-1.59-.68-2.97-1.6-4.13-2.77-1.16-1.16-2.07-2.54-2.72-4.13-.65-1.59-.98-3.29-.98-5.11s.33-3.62.98-5.23,1.56-3.02,2.72-4.21c1.16-1.19,2.54-2.13,4.13-2.81,1.59-.68,3.32-1.02,5.19-1.02s3.7.34,5.32,1.02c1.62.68,3.02,1.62,4.21,2.81,1.19,1.19,2.11,2.6,2.77,4.21s.98,3.36.98,5.23ZM803.29,13.28c0-1.59-.29-3.08-.85-4.47-.57-1.39-1.35-2.6-2.34-3.62-.99-1.02-2.18-1.82-3.57-2.38-1.39-.57-2.88-.85-4.47-.85s-3.14.28-4.47.85c-1.33.57-2.48,1.35-3.45,2.34-.96.99-1.72,2.19-2.26,3.58-.54,1.39-.81,2.91-.81,4.55,0,1.53.28,2.97.85,4.3.57,1.33,1.33,2.51,2.3,3.53.96,1.02,2.13,1.82,3.49,2.38,1.36.57,2.81.85,4.34.85,3.4,0,6.13-1.05,8.17-3.15,2.04-2.1,3.06-4.74,3.06-7.92ZM799.88,19.15c-.28.28-.65.51-1.11.68-.46.17-1.02.26-1.7.26-1.08,0-1.86-.27-2.34-.81-.48-.54-.87-1.18-1.15-1.92-.29-.51-.53-1.01-.72-1.49-.2-.48-.55-.92-1.06-1.32-.4-.4-.94-.6-1.62-.6v3.4c0,.45.13.81.38,1.06.26.26.75.38,1.49.38l.34.34-.34.85h-6.81v-1.19c1.25,0,1.87-.48,1.87-1.45v-8.51c0-.96-.62-1.45-1.87-1.45v-1.19h6.72c2.1,0,3.49.41,4.17,1.23.68.82,1.02,1.66,1.02,2.51,0,.79-.26,1.57-.77,2.34-.51.77-1.36,1.21-2.55,1.32v.34c.68.06,1.19.26,1.53.6.34.34.65.82.94,1.45.4.8.79,1.43,1.19,1.92.4.48.91.72,1.53.72.17,0,.43-.06.77-.17l.26.26-.17.43ZM790.95,12.68c1.13,0,1.93-.27,2.38-.81.45-.54.68-1.21.68-2,0-.62-.17-1.19-.51-1.7s-.91-.77-1.7-.77c-1.08,0-1.62.48-1.62,1.45v3.83h.77Z"/>
      </g>
      <g>
        <path class="cls-2" d="M30.14,9.75c2.99.91,4.94,3.14,4.94,6.47v118.79c0,3.63-2.71,6.21-6.1,6.21s-6.08-2.59-6.08-6.21V15.7c0-3.13,2.32-5.04,4.92-5.95h2.31Z"/>
        <path class="cls-2" d="M52.05,118.93c-3.33.08-6.21-2.37-6.21-5.75l-.03-74.88c0-3.54,2.68-6.17,5.98-6.23s6.23,2.61,6.23,6.23l-.03,74.88c0,3.27-2.71,5.68-5.94,5.75Z"/>
        <path class="cls-2" d="M97.9,118.93c-3.33.09-6.22-2.36-6.22-5.75l-.03-74.88c0-3.54,2.67-6.19,6.01-6.23s6.17,2.52,6.17,6.04v74.99c-.01,3.28-2.65,5.75-5.93,5.83Z"/>
        <path class="cls-2" d="M6.16,107.79c-3.33.04-6.15-2.43-6.15-5.79v-52.87c-.01-3.47,2.97-5.98,6.14-5.94s6.01,2.64,6.01,6.14l-.02,52.57c0,3.35-2.63,5.85-5.98,5.89Z"/>
        <path class="cls-2" d="M120.39,9.75c-2.99.91-4.94,3.14-4.94,6.47v118.79c0,3.63,2.71,6.21,6.1,6.21s6.08-2.59,6.08-6.21V15.7c0-3.13-2.32-5.04-4.92-5.95h-2.31Z"/>
        <path class="cls-2" d="M144.36,107.79c3.33.04,6.15-2.43,6.15-5.79v-52.87c.01-3.47-2.97-5.98-6.14-5.94s-6.01,2.64-6.01,6.14l.02,52.57c0,3.35,2.63,5.85,5.98,5.89Z"/>
        <path class="cls-2" d="M75.1,96.65c-3.44.15-6.32-2.34-6.32-5.77l-.05-30.26c0-3.48,2.52-6.16,5.86-6.29s6.31,2.46,6.31,6.02l-.03,30.53c0,3.2-2.56,5.63-5.77,5.77Z"/>
      </g>
    </g>
  </g>
</svg>