<?xml version="1.0" encoding="UTF-8"?>
<svg id="Layer_2" data-name="Layer 2" xmlns="http://www.w3.org/2000/svg" viewBox="0 0 603.83 355.33">
  <defs>
    <style>
      .cls-1 {
        fill: #fafafa;
      }

      .cls-2 {
        fill: #ffba8f;
      }
    </style>
  </defs>
  <g id="Layer_1-2" data-name="Layer 1">
    <g>
      <g>
        <path class="cls-1" d="M100.41,282.82v-2.89c0-.75.59-1.38,1.35-1.42,3.36-.18,5.69-1.07,6.99-2.67,1.46-1.8,2.19-4.51,2.19-8.12v-30.42c0-4.97-1-9.04-3-12.21-2-3.17-5.58-4.75-10.75-4.75-.78,0-1.78.1-3,.29-1.22.2-2.56.59-4.02,1.17s-2.97,1.44-4.53,2.56c-1.42,1.02-2.73,2.35-3.91,3.99-.22.3-.3.68-.24,1.04.23,1.58.35,3.19.35,4.84v33.5c0,3.61.95,6.31,2.85,8.12,1.79,1.7,4.77,2.6,8.95,2.7.48.01.93.26,1.19.66l.04.06c.18.29.25.64.2.98l-.45,2.81c-.11.69-.71,1.2-1.41,1.2h-39.19c-.79,0-1.43-.64-1.43-1.43v-2.89c0-.75.59-1.38,1.35-1.42,3.36-.18,5.69-1.07,6.99-2.67,1.46-1.8,2.19-4.51,2.19-8.12v-30.42c0-4.97-1-9.04-3-12.21-2-3.17-5.58-4.75-10.75-4.75-.49,0-1.32.1-2.49.29-1.17.2-2.51.66-4.02,1.39-1.51.73-3.05,1.81-4.61,3.22-1.49,1.35-2.84,3.11-4.06,5.3-.12.22-.18.46-.18.71v36.48c0,3.61.88,6.31,2.63,8.12,1.65,1.7,4.72,2.6,9.22,2.7.53.01,1.02.31,1.26.78h0c.13.26.17.54.14.83l-.37,2.86c-.09.71-.7,1.24-1.41,1.24H4.42c-.79,0-1.43-.64-1.43-1.43v-2.88c0-.76.6-1.39,1.36-1.42,3.95-.16,6.72-1.05,8.3-2.68,1.75-1.8,2.63-4.51,2.63-8.12v-41.27c0-.67-.47-1.25-1.13-1.39l-10.03-2.15c-.66-.14-1.13-.72-1.13-1.39v-2.6c0-.64.42-1.2,1.04-1.37l28.06-7.98c.46-.13.97-.02,1.33.3l.1.09c.31.27.49.66.49,1.07v13.25h.59c2.53-4.97,5.85-8.7,9.95-11.19,4.1-2.49,8.58-3.73,13.46-3.73,5.85,0,10.6,1.32,14.26,3.95,2.95,2.13,5.22,4.82,6.81,8.09.48.99,1.83,1.06,2.45.16,2.4-3.5,5.34-6.3,8.81-8.4,4.19-2.53,9.36-3.8,15.5-3.8,7.9,0,13.85,2.27,17.85,6.8,4,4.53,6,10.56,6,18.06v33.5c0,3.61.93,6.31,2.78,8.12,1.74,1.69,4.55,2.59,8.44,2.7.48.01.93.26,1.19.67l.04.06c.18.29.25.64.2.98l-.45,2.81c-.11.69-.71,1.2-1.41,1.2h-38.61c-.79,0-1.43-.64-1.43-1.43Z"/>
        <path class="cls-1" d="M211.97,266.12c.38.44.46,1.07.2,1.58-2.89,5.73-6.85,10.17-11.87,13.33-5.27,3.31-11.26,4.97-17.99,4.97-4.58,0-9-.71-13.24-2.12-4.24-1.41-8.02-3.63-11.34-6.66-3.32-3.02-5.95-6.88-7.9-11.55-1.95-4.68-2.93-10.33-2.93-16.97,0-7.02,1.17-13.02,3.51-17.99,2.34-4.97,5.29-9.04,8.85-12.21,3.56-3.17,7.41-5.48,11.55-6.95,4.14-1.46,8.02-2.19,11.63-2.19,5.27,0,9.78.71,13.53,2.12,3.75,1.42,6.82,3.36,9.21,5.85,2.39,2.49,4.17,5.41,5.34,8.78,1.03,2.95,1.6,6.15,1.73,9.59.03.8-.63,1.45-1.43,1.45h-43.52c-.71,0-1.33.53-1.41,1.24-.11.91-.21,1.79-.27,2.64-.1,1.22-.15,2.66-.15,4.31,0,5.17.73,9.46,2.19,12.87,1.46,3.41,3.29,6.14,5.49,8.19,2.19,2.05,4.56,3.49,7.09,4.31,2.53.83,4.92,1.24,7.17,1.24,4.68,0,8.9-.71,12.65-2.12,3.75-1.41,6.95-3.19,9.58-5.34l1.02.15,1.28,1.47ZM193.73,230.71c.81,0,1.46-.68,1.43-1.5-.17-4.69-1.13-8.11-2.9-10.28-1.95-2.39-5.12-3.58-9.51-3.58-1.37,0-2.83.27-4.39.8-1.56.54-3.07,1.44-4.53,2.71-1.46,1.27-2.78,2.88-3.95,4.83-.9,1.51-1.63,3.24-2.19,5.21-.26.91.44,1.81,1.38,1.81h24.66Z"/>
        <path class="cls-1" d="M282.03,266.12c.38.44.46,1.06.2,1.58-2.89,5.73-6.85,10.17-11.86,13.33-5.27,3.31-11.26,4.97-17.99,4.97-4.59,0-9-.71-13.24-2.12s-8.02-3.63-11.34-6.66c-3.32-3.02-5.95-6.88-7.9-11.55-1.95-4.68-2.92-10.33-2.92-16.97,0-7.02,1.17-13.02,3.51-17.99,2.34-4.97,5.29-9.04,8.85-12.21,3.56-3.17,7.41-5.48,11.55-6.95,4.14-1.46,8.02-2.19,11.63-2.19,5.27,0,9.78.71,13.53,2.12,3.75,1.42,6.82,3.36,9.21,5.85,2.39,2.49,4.17,5.41,5.34,8.78,1.03,2.95,1.6,6.15,1.73,9.59.03.8-.63,1.45-1.43,1.45h-43.52c-.71,0-1.33.53-1.41,1.24-.12.92-.21,1.79-.27,2.64-.1,1.22-.15,2.66-.15,4.31,0,5.17.73,9.46,2.2,12.87,1.46,3.41,3.29,6.14,5.48,8.19,2.19,2.05,4.56,3.49,7.09,4.31,2.54.83,4.92,1.24,7.17,1.24,4.68,0,8.9-.71,12.65-2.12,3.75-1.41,6.95-3.19,9.58-5.34l1.02.15,1.28,1.47ZM263.79,230.71c.81,0,1.46-.68,1.43-1.5-.17-4.69-1.13-8.11-2.9-10.28-1.95-2.39-5.12-3.58-9.51-3.58-1.37,0-2.83.27-4.39.8-1.56.54-3.07,1.44-4.54,2.71-1.46,1.27-2.78,2.88-3.95,4.83-.9,1.51-1.63,3.24-2.18,5.21-.26.91.44,1.81,1.38,1.81h24.66Z"/>
        <path class="cls-1" d="M341.4,277.62c-.06.31-.23.6-.47.81-2.74,2.38-5.81,4.22-9.21,5.52-3.56,1.36-7.48,2.05-11.77,2.05-2.83,0-5.54-.27-8.12-.8-2.59-.54-4.85-1.68-6.8-3.44-1.95-1.75-3.49-4.24-4.61-7.46-1.12-3.22-1.68-7.46-1.68-12.72v-39.38c0-.79-.64-1.43-1.43-1.43h-10.17c-.79,0-1.43-.64-1.43-1.43v-2c0-.43.19-.83.52-1.1l27.46-22.65c.26-.21.58-.33.91-.33h1.43c.79,0,1.43.64,1.43,1.43v15.72c0,.79.64,1.43,1.43,1.43h21.39c.9,0,1.58.83,1.4,1.72l-1.15,5.53c-.07.33-.25.62-.51.82l-.67.54c-.25.2-.57.31-.89.31h-19.57c-.79,0-1.43.64-1.43,1.43v37.04c0,3.8.37,6.83,1.1,9.07.73,2.24,1.71,3.93,2.93,5.05,1.22,1.12,2.61,1.83,4.17,2.12,1.56.29,3.12.44,4.68.44,1.76,0,3.63-.22,5.63-.66,2-.44,3.73-1,5.19-1.68l.34.34c.34.34.48.82.39,1.29l-.48,2.43Z"/>
        <path class="cls-1" d="M452.76,285.49l-.1-.09c-.31-.27-.49-.66-.49-1.07v-12.22h-.59c-5.07,9.26-13.07,13.9-23.99,13.9-7.9,0-13.85-2.27-17.84-6.8-4-4.53-6-10.55-6-18.06v-29.99c0-3.61-.95-6.07-2.85-7.39-1.79-1.24-4.77-1.9-8.94-1.97-.49,0-.94-.26-1.2-.67l-.05-.09c-.17-.27-.24-.6-.21-.92l.4-3.54c.07-.64.57-1.15,1.2-1.25l27.92-4.21c.07-.01.14-.02.21-.02h.81c.79,0,1.43.64,1.43,1.43v45.53c0,5.07,1,9.17,3,12.29,2,3.12,5.58,4.68,10.75,4.68.58,0,1.51-.1,2.78-.29,1.27-.19,2.65-.66,4.17-1.39,1.51-.73,3.07-1.8,4.68-3.22,1.53-1.34,2.91-3.11,4.13-5.3.12-.22.18-.46.18-.71v-32.97c0-3.61-.88-6.07-2.63-7.39-1.65-1.24-4.67-1.89-9.07-1.97-.53,0-1.03-.31-1.27-.79h0c-.12-.26-.17-.54-.14-.81l.41-3.48c.07-.63.56-1.14,1.19-1.24l27.64-4.35c.07-.01.15-.02.22-.02h.95c.79,0,1.43.64,1.43,1.43v57.09c0,.68.48,1.26,1.14,1.4l10,2.02c.66.13,1.14.72,1.14,1.4v2c0,.64-.42,1.2-1.04,1.37l-28.06,7.98c-.47.13-.97.02-1.33-.3Z"/>
        <path class="cls-1" d="M487.86,325.09v-2.9c0-.75.59-1.38,1.35-1.42,3.2-.18,5.53-1.02,6.99-2.52,1.66-1.71,2.49-4.46,2.49-8.26v-83.54c0-.67-.47-1.25-1.13-1.39l-10.03-2.15c-.66-.14-1.13-.72-1.13-1.39v-2.6c0-.64.42-1.2,1.04-1.37l28.06-7.98c.46-.13.97-.02,1.33.3l.1.09c.31.27.49.66.49,1.07v12.96h.58c2.73-5.75,6.07-9.63,10.02-11.63,3.95-2,8.12-3,12.51-3,5.65,0,10.41,1.05,14.26,3.14,3.85,2.1,6.99,4.85,9.43,8.26,2.44,3.41,4.19,7.29,5.27,11.63,1.07,4.34,1.61,8.75,1.61,13.24,0,5.56-.78,10.8-2.34,15.72-1.56,4.92-3.85,9.21-6.88,12.87-3.02,3.66-6.75,6.53-11.19,8.63-4.44,2.1-9.48,3.15-15.14,3.15-.49,0-1.41-.03-2.78-.07-1.37-.05-2.93-.27-4.68-.66-1.76-.39-3.61-.98-5.56-1.76-1.03-.41-1.98-.91-2.87-1.51-.96-.65-2.25,0-2.25,1.16v26.68c0,1.85.19,3.46.58,4.83.39,1.36,1.19,2.51,2.41,3.44,1.22.93,2.95,1.61,5.19,2.05,2.06.4,4.74.62,8.04.65.54,0,1.03.31,1.27.79h0c.13.25.17.54.14.82l-.37,2.86c-.09.71-.7,1.24-1.41,1.24h-43.98c-.79,0-1.43-.64-1.43-1.43ZM517.41,266.92c0,.14.02.29.06.42,1.37,4.67,3.47,7.91,6.3,9.74,2.88,1.85,6.12,2.78,9.73,2.78,2.93,0,5.53-.8,7.83-2.41,2.29-1.61,4.24-3.78,5.85-6.51,1.61-2.73,2.85-5.95,3.73-9.65.88-3.7,1.32-7.61,1.32-11.7,0-3.61-.42-7.02-1.24-10.24-.83-3.22-2.07-6.04-3.73-8.48-1.66-2.44-3.78-4.36-6.36-5.78-2.58-1.41-5.63-2.12-9.14-2.12-2.83,0-5.51.64-8.04,1.9-2.42,1.21-4.45,3.09-6.07,5.64-.15.23-.22.5-.22.78v35.64Z"/>
        <path class="cls-1" d="M603.83,188.81c0,1.82-.33,3.52-.98,5.11-.65,1.59-1.57,2.97-2.77,4.13-1.19,1.16-2.6,2.09-4.21,2.77-1.62.68-3.39,1.02-5.32,1.02s-3.6-.34-5.19-1.02c-1.59-.68-2.97-1.6-4.13-2.77-1.16-1.16-2.07-2.54-2.72-4.13-.65-1.59-.98-3.29-.98-5.11s.33-3.62.98-5.23,1.56-3.02,2.72-4.21c1.16-1.19,2.54-2.13,4.13-2.81,1.59-.68,3.32-1.02,5.19-1.02s3.7.34,5.32,1.02c1.62.68,3.02,1.62,4.21,2.81,1.19,1.19,2.11,2.6,2.77,4.21s.98,3.36.98,5.23ZM601.79,188.81c0-1.59-.29-3.08-.85-4.47-.57-1.39-1.35-2.6-2.34-3.62-.99-1.02-2.18-1.82-3.57-2.38-1.39-.57-2.88-.85-4.47-.85s-3.14.28-4.47.85c-1.33.57-2.48,1.35-3.45,2.34-.96.99-1.72,2.19-2.26,3.58-.54,1.39-.81,2.91-.81,4.55,0,1.53.28,2.97.85,4.3.57,1.33,1.33,2.51,2.3,3.53.96,1.02,2.13,1.82,3.49,2.38,1.36.57,2.81.85,4.34.85,3.4,0,6.13-1.05,8.17-3.15,2.04-2.1,3.06-4.74,3.06-7.92ZM598.39,194.68c-.28.28-.65.51-1.11.68-.46.17-1.02.26-1.7.26-1.08,0-1.86-.27-2.34-.81-.48-.54-.87-1.18-1.15-1.92-.29-.51-.53-1.01-.72-1.49-.2-.48-.55-.92-1.06-1.32-.4-.4-.94-.6-1.62-.6v3.4c0,.45.13.81.38,1.06.26.26.75.38,1.49.38l.34.34-.34.85h-6.81v-1.19c1.25,0,1.87-.48,1.87-1.45v-8.51c0-.96-.62-1.45-1.87-1.45v-1.19h6.72c2.1,0,3.49.41,4.17,1.23.68.82,1.02,1.66,1.02,2.51,0,.79-.26,1.57-.77,2.34-.51.77-1.36,1.21-2.55,1.32v.34c.68.06,1.19.26,1.53.6.34.34.65.82.94,1.45.4.8.79,1.43,1.19,1.92.4.48.91.72,1.53.72.17,0,.43-.06.77-.17l.26.26-.17.43ZM589.45,188.22c1.13,0,1.93-.27,2.38-.81.45-.54.68-1.21.68-2,0-.62-.17-1.19-.51-1.7s-.91-.77-1.7-.77c-1.08,0-1.62.48-1.62,1.45v3.83h.77Z"/>
      </g>
      <g>
        <path class="cls-2" d="M.31,336.4l.43-.35,1.56-.12c-.13,1.12-.05,2.11.26,2.95.3.85.74,1.55,1.33,2.11.59.56,1.27.98,2.05,1.27.78.29,1.58.43,2.39.43s1.62-.08,2.37-.24c.74-.16,1.41-.42,1.99-.8.59-.38,1.08-.87,1.47-1.47.39-.6.64-1.34.74-2.23.1-.83,0-1.56-.33-2.19s-.79-1.19-1.39-1.68-1.3-.95-2.09-1.35-1.6-.82-2.42-1.25c-.82-.43-1.62-.89-2.41-1.37-.78-.48-1.47-1.04-2.05-1.68-.59-.64-1.03-1.38-1.33-2.23s-.39-1.85-.25-2.99c.16-1.22.55-2.29,1.17-3.21.63-.91,1.37-1.67,2.25-2.29.87-.61,1.81-1.08,2.82-1.39,1-.31,1.96-.47,2.87-.47.42,0,.91.03,1.47.08.56.05,1.1.12,1.62.2s.99.14,1.41.2c.42.05.69.08.82.08h.57c.22,0,.46-.02.7-.06.25-.04.49-.09.72-.16.23-.06.44-.16.63-.29l.35.35-2.11,6.22-.31.19h-.66c.08-.57.03-1.16-.14-1.76-.17-.6-.46-1.15-.88-1.64-.42-.5-.97-.91-1.66-1.23-.69-.33-1.55-.49-2.56-.49-.65,0-1.3.09-1.94.25-.64.17-1.22.42-1.74.76s-.97.77-1.33,1.29c-.37.52-.59,1.15-.66,1.88-.16,1.2.07,2.18.68,2.95.61.77,1.42,1.45,2.42,2.03,1,.59,2.09,1.14,3.27,1.66,1.17.52,2.26,1.13,3.25,1.82.99.69,1.78,1.52,2.37,2.5.59.98.79,2.21.61,3.7-.16,1.23-.56,2.33-1.21,3.31-.65.98-1.45,1.82-2.41,2.52s-1.99,1.25-3.13,1.62c-1.14.38-2.26.57-3.38.57-.24,0-.64-.01-1.21-.04-.57-.03-1.25-.1-2.01-.22-.77-.12-1.6-.31-2.5-.59s-1.82-.67-2.76-1.19l.31-5.99Z"/>
        <path class="cls-2" d="M40.14,337.65c-.05.94-.24,1.82-.57,2.64s-.74,1.53-1.25,2.11c-.51.59-1.08,1.05-1.7,1.39-.63.34-1.25.51-1.88.51-.78,0-1.3-.49-1.56-1.47-.26-.98-.2-2.48.19-4.52l1.8-9.23c.05-.26.08-.54.1-.84.01-.3-.03-.58-.14-.84-.1-.26-.29-.47-.55-.63-.26-.16-.64-.23-1.14-.23-.86,0-1.73.51-2.62,1.53-.89,1.02-1.69,2.33-2.41,3.95-.72,1.62-1.33,3.44-1.84,5.46-.51,2.02-.82,4.05-.92,6.08l-2.97.47-.51-.43,4.5-24.77c.05-.24.09-.45.12-.65s.04-.38.04-.57c0-.44-.13-.79-.39-1.04s-.94-.37-2.03-.37l-.16-1.02,6.42-2.07.2.16c-.99,3.65-1.89,7.26-2.7,10.82s-1.55,7.17-2.23,10.82h.43c.39-1.38.89-2.74,1.49-4.07s1.28-2.52,2.04-3.56c.76-1.04,1.57-1.88,2.44-2.52.87-.64,1.78-.96,2.72-.96.6,0,1.14.1,1.62.29.48.2.87.52,1.15.98.29.46.46,1.05.53,1.78.06.73,0,1.62-.18,2.66l-1.96,10.21c-.23,1.2.05,1.8.86,1.8.42,0,.88-.35,1.39-1.06s.83-1.67.96-2.89l.7.08Z"/>
        <path class="cls-2" d="M49.3,344.3c-1.46,0-2.62-.31-3.48-.94-.86-.63-1.51-1.42-1.94-2.39-.43-.96-.68-2.03-.74-3.21-.07-1.17-.02-2.31.14-3.4.05-.34.16-.83.33-1.49.17-.65.42-1.37.74-2.15.33-.78.75-1.58,1.27-2.41s1.15-1.57,1.9-2.23c.74-.67,1.62-1.21,2.62-1.64,1-.43,2.16-.64,3.46-.64,1.46,0,2.63.31,3.5.92.87.61,1.52,1.4,1.96,2.37.43.96.67,2.03.72,3.21.05,1.17,0,2.32-.16,3.44-.05.31-.16.8-.33,1.45-.17.65-.42,1.37-.74,2.15s-.75,1.58-1.27,2.41c-.52.82-1.15,1.57-1.9,2.25s-1.62,1.23-2.62,1.66-2.16.65-3.46.65ZM56.26,334.01c.16-1.02.25-2.04.29-3.07.04-1.03-.05-1.97-.25-2.82-.21-.85-.57-1.54-1.08-2.07-.51-.53-1.23-.8-2.17-.8-.89,0-1.68.24-2.39.7-.7.47-1.32,1.1-1.86,1.9-.54.8-.98,1.73-1.35,2.8s-.64,2.19-.82,3.36c-.16,1.02-.25,2.04-.29,3.07-.04,1.03.04,1.97.25,2.82.21.85.57,1.54,1.08,2.07s1.23.8,2.17.8c.89,0,1.69-.23,2.41-.7s1.34-1.1,1.88-1.9c.53-.79.98-1.73,1.33-2.8s.62-2.19.8-3.36Z"/>
        <path class="cls-2" d="M78.13,344.03l-.51-.43-1.02-9.16c-.44.91-.92,1.82-1.43,2.72-.51.9-1.02,1.75-1.54,2.54-.52.8-1.04,1.52-1.55,2.17s-1,1.2-1.47,1.64l-2.54.51-.51-.43-1.76-16.2c-.08-.55-.33-.82-.74-.82s-.82.36-1.21,1.08c-.39.72-.65,1.68-.78,2.88l-.7-.08c.08-.94.25-1.82.51-2.64.26-.82.59-1.53.98-2.11.39-.59.83-1.05,1.31-1.39.48-.34.98-.51,1.51-.51.55,0,1.03.23,1.45.68.42.46.68,1.26.78,2.41l1.25,13.73.59.12c.55-.24,1.13-.71,1.76-1.43.63-.72,1.21-1.57,1.74-2.56.53-.99.98-2.07,1.35-3.23.36-1.16.55-2.31.55-3.46l-.27-2.66c-.08-.55-.33-.82-.74-.82s-.82.36-1.21,1.08c-.39.72-.65,1.68-.78,2.88l-.7-.08c.08-.94.25-1.82.51-2.64.26-.82.59-1.53.98-2.11.39-.59.83-1.05,1.31-1.39.48-.34.98-.51,1.51-.51.55,0,1.03.23,1.45.68.42.46.68,1.26.78,2.41l1.25,13.73.59.12c.55-.24,1.13-.71,1.76-1.43.63-.72,1.21-1.57,1.74-2.56.53-.99.98-2.07,1.35-3.23.37-1.16.55-2.31.55-3.46,0-.99-.14-1.8-.43-2.43-.29-.62-.87-1-1.76-1.13l-.12-.23c.1-.49.27-.91.49-1.23.22-.33.46-.58.72-.76.26-.18.52-.31.76-.37.25-.07.46-.1.65-.1.83,0,1.48.27,1.94.82.46.55.68,1.21.68,2,0,.7-.13,1.54-.39,2.5s-.61,1.98-1.06,3.05c-.44,1.07-.95,2.17-1.52,3.29-.57,1.12-1.17,2.19-1.8,3.21-.63,1.02-1.26,1.95-1.9,2.8s-1.23,1.53-1.78,2.05l-2.54.51Z"/>
        <path class="cls-2" d="M113.34,344.3l-.2-.16,2.7-10.95h-.43c-.39,1.38-.89,2.74-1.51,4.07-.61,1.33-1.31,2.52-2.09,3.56-.78,1.04-1.64,1.88-2.58,2.52-.94.64-1.93.96-2.97.96-.6,0-1.14-.1-1.62-.29s-.87-.52-1.15-.98-.47-1.04-.55-1.76c-.08-.72-.01-1.61.2-2.68l2.03-10.21c.24-1.2-.05-1.8-.86-1.8-.42,0-.88.35-1.39,1.06-.51.71-.83,1.67-.96,2.9l-.7-.08c.05-.94.24-1.82.57-2.64.33-.82.74-1.53,1.25-2.11.51-.59,1.08-1.05,1.7-1.39.63-.34,1.25-.51,1.88-.51.81,0,1.35.48,1.62,1.43s.19,2.47-.25,4.56l-1.88,9.23c-.05.29-.08.57-.1.86-.01.29.03.56.14.82.1.26.29.47.55.63.26.16.64.24,1.13.24.99,0,1.96-.51,2.89-1.53.94-1.02,1.79-2.33,2.54-3.95.76-1.62,1.38-3.44,1.88-5.46.5-2.02.81-4.05.94-6.08l2.97-.47.51.43-2.66,14.08c-.05.23-.09.45-.12.65s-.04.39-.04.57c0,.44.13.79.39,1.04.26.25.94.37,2.03.37l.16,1.02-6.02,2.07Z"/>
        <path class="cls-2" d="M118.54,355.14l.24-1.29c1.04,0,1.83-.22,2.35-.66.52-.44.89-1.24,1.1-2.39l3.68-20.66c-.99.63-1.95,1.28-2.87,1.96-.93.68-1.78,1.32-2.56,1.92l-.39-.7c.89-.76,1.88-1.58,2.99-2.47,1.11-.89,2.15-1.68,3.11-2.39l1.21-6.61,2.78-.39.2.16-.82,4.66c1.3-.78,2.49-1.39,3.56-1.82,1.07-.43,1.97-.64,2.7-.64,1.38,0,2.44.61,3.17,1.82.73,1.21,1.1,2.81,1.1,4.79,0,1.7-.33,3.37-1,5.03-.66,1.66-1.53,3.14-2.58,4.46-1.06,1.32-2.24,2.38-3.54,3.19-1.3.81-2.6,1.21-3.87,1.21-.37,0-.76-.01-1.19-.04s-.92-.1-1.47-.23l-1.17,6.77c-.1.6-.13,1.09-.08,1.49.05.39.21.7.49.94.27.24.69.4,1.25.49.56.09,1.31.14,2.25.14l.12.31-.35.98h-10.37ZM127.03,343.09c1.51,0,2.87-.35,4.09-1.06,1.21-.7,2.24-1.63,3.07-2.78.83-1.15,1.48-2.46,1.94-3.93.46-1.47.68-2.98.68-4.52,0-1.43-.17-2.49-.51-3.17-.34-.68-.9-1.02-1.68-1.02-.89,0-1.79.14-2.7.43-.91.29-1.83.67-2.74,1.13l-2.58,14.71.43.19Z"/>
        <path class="cls-2" d="M160.64,337.65c-.05.94-.23,1.82-.53,2.64-.3.82-.69,1.53-1.15,2.11-.47.59-1,1.05-1.59,1.39-.59.34-1.18.51-1.78.51-.68,0-1.16-.22-1.45-.65-.29-.43-.46-.95-.53-1.56-.07-.61-.05-1.27.06-1.96s.21-1.3.31-1.82l3.52-19.91c.08-.47.12-.85.12-1.14,0-.49-.17-.87-.51-1.11s-1.04-.37-2.11-.37l-.16-1.02,6.34-1.64.2.16-4.66,26.45c-.08.44-.07.86.02,1.23.09.38.37.57.84.57.44,0,.91-.35,1.41-1.06.49-.7.81-1.67.94-2.89l.7.08Z"/>
        <path class="cls-2" d="M182.16,337.65c-.05.94-.24,1.81-.55,2.62-.31.81-.7,1.51-1.17,2.11-.47.6-.98,1.07-1.55,1.41-.56.34-1.11.51-1.66.51s-1-.24-1.37-.7c-.37-.47-.55-1.2-.55-2.19,0-.81.16-1.84.47-3.09l.9-3.4h-.55c-.42,1.2-.89,2.37-1.41,3.5s-1.11,2.14-1.76,3.01-1.37,1.57-2.15,2.09c-.78.52-1.62.78-2.5.78-.99,0-1.77-.33-2.35-.98-.57-.65-.99-1.45-1.25-2.41s-.39-1.96-.37-3.03c.01-1.07.12-2.02.33-2.86.31-1.38.84-2.72,1.58-4.01.74-1.29,1.6-2.44,2.58-3.44.98-1,2.04-1.81,3.19-2.41,1.15-.6,2.29-.9,3.44-.9.13,0,.46.01.98.04s1.06.12,1.6.27l.2-1.06h2.66l.19.16-2.86,16.04c-.24,1.2.05,1.8.86,1.8.23,0,.48-.09.72-.27.25-.18.48-.45.7-.8.22-.35.42-.77.59-1.25.17-.48.28-1.02.33-1.62l.7.08ZM177.42,325.52c-1.49,0-2.82.34-3.99,1.02s-2.19,1.56-3.03,2.64c-.85,1.08-1.52,2.3-2.01,3.66-.5,1.36-.81,2.71-.94,4.07-.05.63-.05,1.21,0,1.76s.16,1.04.33,1.47c.17.43.42.77.74,1.02.33.25.72.37,1.19.37.52,0,1.04-.18,1.54-.55.51-.36.99-.85,1.45-1.45.46-.6.89-1.3,1.29-2.11.4-.81.79-1.64,1.15-2.5.39-.94.74-1.88,1.04-2.84.3-.95.57-1.84.8-2.68.23-.83.42-1.57.55-2.21.13-.64.22-1.12.27-1.43l-.39-.24Z"/>
        <path class="cls-2" d="M193.82,337.65c-.08.91-.27,1.77-.57,2.58-.3.81-.71,1.51-1.23,2.11-.52.6-1.13,1.08-1.82,1.43-.69.35-1.47.53-2.33.53-.47,0-.85-.1-1.15-.29s-.51-.52-.64-.98c-.13-.46-.19-1.07-.18-1.84.01-.77.12-1.73.33-2.88l2.15-12.4h-2.9l.27-1.06,2.89-.39,1.76-4.54,1.96-.86.23.2-.94,5.2h4.5l-.39,1.13-.39.31h-3.95l-2.46,13.81c-.13.65-.09,1.12.14,1.39s.59.41,1.12.41c.63,0,1.23-.36,1.82-1.08.59-.72.95-1.67,1.08-2.87l.7.08Z"/>
        <path class="cls-2" d="M210.52,336.75c-.39,1.02-.86,1.99-1.41,2.91-.55.93-1.19,1.73-1.94,2.41-.74.68-1.58,1.22-2.5,1.62-.93.4-1.94.61-3.03.61-1.41,0-2.48-.6-3.23-1.8-.74-1.2-1.11-2.8-1.11-4.81,0-1.59.32-3.21.98-4.85.65-1.64,1.51-3.14,2.56-4.48,1.06-1.34,2.24-2.44,3.56-3.29,1.32-.85,2.63-1.27,3.93-1.27.5,0,.98.05,1.47.14.48.09.9.25,1.25.49.35.23.64.53.86.9.22.37.33.82.33,1.37,0,.99-.21,1.9-.65,2.74-.43.84-1.11,1.55-2.03,2.15s-2.11,1.06-3.54,1.39c-1.43.33-3.14.49-5.12.49-.13.6-.23,1.22-.29,1.86-.06.64-.1,1.3-.1,1.98,0,1.51.26,2.6.76,3.27.51.66,1.21,1,2.09,1s1.63-.17,2.31-.51c.68-.34,1.27-.77,1.78-1.29s.95-1.09,1.33-1.7c.38-.61.7-1.19.96-1.74l.78.43ZM201.13,332.44c1.75,0,3.18-.19,4.28-.57s1.98-.84,2.6-1.39,1.05-1.12,1.27-1.72.33-1.14.33-1.6c0-.18-.03-.38-.08-.61-.05-.22-.14-.42-.27-.61-.13-.18-.31-.34-.55-.47s-.55-.2-.94-.2c-.78,0-1.51.18-2.19.55s-1.3.87-1.88,1.51c-.57.64-1.08,1.4-1.53,2.27-.44.87-.8,1.82-1.06,2.84Z"/>
        <path class="cls-2" d="M217.68,344.3c-.6,0-1.13-.23-1.6-.69-.47-.46-.7-1-.7-1.62s.24-1.17.7-1.62c.47-.46,1-.68,1.6-.68s1.17.23,1.62.68.68,1,.68,1.62-.23,1.17-.68,1.62c-.46.46-1,.69-1.62.69Z"/>
        <path class="cls-2" d="M256.26,343.83l.16-1.45c1.57,0,2.64-.25,3.23-.74s.91-1.2.96-2.11l.82-19.05-11.19,23.36h-.43l-6.46-23.4-3.87,19.09c-.18.91-.03,1.62.47,2.11.49.5,1.54.74,3.13.74l.12.31-.27,1.13h-9.43l.16-1.45c.65,0,1.2-.06,1.64-.19s.82-.32,1.12-.57c.3-.25.53-.55.68-.9s.29-.75.39-1.19l3.87-19.05c.08-.78-.1-1.41-.53-1.88-.43-.47-1.31-.7-2.64-.7l.16-1.45h8.33l5.16,20.7,9.51-20.7h7.86l-.16,1.45c-1.41,0-2.39.24-2.95.72-.56.48-.91,1.19-1.04,2.13l-.74,18.78c-.03.44,0,.84.08,1.19s.23.65.45.9.55.44.98.57.98.19,1.66.19l.12.31-.27,1.13h-11.07Z"/>
        <path class="cls-2" d="M277.97,337.65c-.05.94-.23,1.82-.53,2.64-.3.82-.68,1.53-1.15,2.11s-1,1.05-1.58,1.39c-.59.34-1.18.51-1.78.51-1.04,0-1.67-.48-1.88-1.45-.21-.96-.12-2.48.27-4.54l1.68-9.31c.08-.47.12-.85.12-1.13,0-.5-.16-.87-.47-1.12-.31-.25-1-.37-2.07-.37l-.2-.98,6.3-1.6.2.16-2.82,15.77c-.23,1.2.05,1.8.86,1.8.44,0,.91-.35,1.41-1.06s.81-1.67.94-2.89l.7.08ZM275.47,319.34c-.65,0-1.22-.23-1.7-.7s-.72-1.04-.72-1.72.24-1.25.72-1.72c.48-.47,1.05-.7,1.7-.7s1.25.23,1.72.7.7,1.04.7,1.72-.24,1.25-.7,1.72c-.47.47-1.04.7-1.72.7Z"/>
        <path class="cls-2" d="M283.57,338.47c-.13.21-.22.42-.26.65-.04.22-.06.44-.06.65,0,.73.23,1.41.68,2.05s1.02,1.04,1.7,1.19c1.36,0,2.5-.29,3.42-.88.92-.59,1.47-1.51,1.62-2.76.08-.76-.08-1.4-.47-1.94-.39-.53-.9-1.02-1.53-1.45-.63-.43-1.31-.84-2.05-1.23-.74-.39-1.41-.84-2-1.35-.59-.51-1.05-1.09-1.39-1.76-.34-.66-.42-1.49-.23-2.48.16-.86.47-1.62.94-2.29.47-.66,1.03-1.23,1.68-1.68s1.36-.8,2.13-1.04c.77-.24,1.53-.35,2.29-.35,1.46,0,2.6.28,3.42.84.82.56,1.23,1.34,1.23,2.33,0,.23-.06.5-.18.8s-.3.57-.55.82-.56.46-.94.63c-.38.17-.84.25-1.39.25l-.16-.39c.31-.42.47-.92.47-1.53s-.16-1.15-.47-1.66c-.31-.51-.76-.83-1.33-.96-.52,0-1.02.07-1.51.2-.48.13-.93.33-1.35.59-.42.26-.76.59-1.04,1s-.45.87-.53,1.39c-.13.84,0,1.53.41,2.09.4.56.93,1.07,1.58,1.52.65.46,1.36.88,2.13,1.27.77.39,1.47.84,2.09,1.33.63.5,1.11,1.08,1.45,1.74.34.67.4,1.47.19,2.41-.42,1.9-1.33,3.35-2.74,4.34-1.41.99-3.13,1.49-5.16,1.49-.47,0-1.01-.05-1.62-.14-.61-.09-1.19-.26-1.74-.51s-1-.6-1.37-1.06c-.37-.46-.55-1.04-.55-1.74,0-.37.08-.71.25-1.04.17-.33.39-.61.67-.86.27-.25.58-.44.92-.59.34-.14.69-.21,1.06-.21l.24.31Z"/>
        <path class="cls-2" d="M299.65,338.47c-.13.21-.22.42-.26.65-.04.22-.06.44-.06.65,0,.73.23,1.41.68,2.05s1.02,1.04,1.7,1.19c1.36,0,2.5-.29,3.42-.88.92-.59,1.47-1.51,1.62-2.76.08-.76-.08-1.4-.47-1.94-.39-.53-.9-1.02-1.53-1.45-.63-.43-1.31-.84-2.05-1.23-.74-.39-1.41-.84-2-1.35-.59-.51-1.05-1.09-1.39-1.76-.34-.66-.42-1.49-.23-2.48.16-.86.47-1.62.94-2.29.47-.66,1.03-1.23,1.68-1.68s1.36-.8,2.13-1.04c.77-.24,1.53-.35,2.29-.35,1.46,0,2.6.28,3.42.84.82.56,1.23,1.34,1.23,2.33,0,.23-.06.5-.18.8s-.3.57-.55.82-.56.46-.94.63c-.38.17-.84.25-1.39.25l-.16-.39c.31-.42.47-.92.47-1.53s-.16-1.15-.47-1.66c-.31-.51-.76-.83-1.33-.96-.52,0-1.02.07-1.51.2-.48.13-.93.33-1.35.59-.42.26-.76.59-1.04,1s-.45.87-.53,1.39c-.13.84,0,1.53.41,2.09.4.56.93,1.07,1.58,1.52.65.46,1.36.88,2.13,1.27.77.39,1.47.84,2.09,1.33.63.5,1.11,1.08,1.45,1.74.34.67.4,1.47.19,2.41-.42,1.9-1.33,3.35-2.74,4.34-1.41.99-3.13,1.49-5.16,1.49-.47,0-1.01-.05-1.62-.14-.61-.09-1.19-.26-1.74-.51s-1-.6-1.37-1.06c-.37-.46-.55-1.04-.55-1.74,0-.37.08-.71.25-1.04.17-.33.39-.61.67-.86.27-.25.58-.44.92-.59.34-.14.69-.21,1.06-.21l.24.31Z"/>
        <path class="cls-2" d="M342.25,337.65c-.05.94-.24,1.82-.57,2.64s-.74,1.53-1.25,2.11c-.51.59-1.08,1.05-1.7,1.39-.63.34-1.25.51-1.88.51-.78,0-1.31-.49-1.57-1.47s-.2-2.48.2-4.52l1.8-9.23c.05-.26.08-.54.1-.84.01-.3-.03-.58-.14-.84-.1-.26-.29-.47-.55-.63s-.64-.23-1.13-.23c-.99,0-1.96.51-2.89,1.53-.94,1.02-1.79,2.33-2.54,3.95-.76,1.62-1.39,3.44-1.9,5.46-.51,2.02-.82,4.05-.92,6.08l-2.97.47-.51-.43,2.66-14.09c.05-.23.09-.45.12-.64.03-.2.04-.39.04-.57,0-.44-.13-.79-.39-1.04-.26-.25-.94-.37-2.03-.37l-.16-1.02,6.57-2.07.19.16c-.68,1.77-1.28,3.57-1.8,5.4-.52,1.83-1,3.68-1.45,5.56h.43c.39-1.38.89-2.74,1.49-4.07s1.29-2.52,2.07-3.56c.78-1.04,1.64-1.88,2.58-2.52.94-.64,1.94-.96,3.01-.96.6,0,1.14.1,1.62.29.48.2.87.52,1.15.98.29.46.46,1.05.53,1.78.06.73,0,1.62-.18,2.66l-1.96,10.21c-.24,1.2.05,1.8.86,1.8.42,0,.88-.35,1.39-1.06.51-.7.83-1.67.96-2.89l.7.08Z"/>
        <path class="cls-2" d="M351.41,344.3c-1.46,0-2.62-.31-3.48-.94-.86-.63-1.51-1.42-1.94-2.39-.43-.96-.68-2.03-.74-3.21-.07-1.17-.02-2.31.14-3.4.05-.34.16-.83.33-1.49.17-.65.42-1.37.74-2.15.33-.78.75-1.58,1.27-2.41s1.15-1.57,1.9-2.23c.74-.67,1.62-1.21,2.62-1.64,1-.43,2.16-.64,3.46-.64,1.46,0,2.63.31,3.5.92.87.61,1.52,1.4,1.96,2.37.43.96.67,2.03.72,3.21.05,1.17,0,2.32-.16,3.44-.05.31-.16.8-.33,1.45-.17.65-.42,1.37-.74,2.15s-.75,1.58-1.27,2.41c-.52.82-1.15,1.57-1.9,2.25s-1.62,1.23-2.62,1.66-2.16.65-3.46.65ZM358.37,334.01c.16-1.02.25-2.04.29-3.07.04-1.03-.05-1.97-.25-2.82-.21-.85-.57-1.54-1.08-2.07-.51-.53-1.23-.8-2.17-.8-.89,0-1.68.24-2.39.7-.7.47-1.32,1.1-1.86,1.9-.54.8-.98,1.73-1.35,2.8s-.64,2.19-.82,3.36c-.16,1.02-.25,2.04-.29,3.07-.04,1.03.04,1.97.25,2.82.21.85.57,1.54,1.08,2.07s1.23.8,2.17.8c.89,0,1.69-.23,2.41-.7s1.34-1.1,1.88-1.9c.53-.79.98-1.73,1.33-2.8s.62-2.19.8-3.36Z"/>
        <path class="cls-2" d="M373.39,337.65c-.08.91-.27,1.77-.57,2.58-.3.81-.71,1.51-1.23,2.11-.52.6-1.13,1.08-1.82,1.43-.69.35-1.47.53-2.33.53-.47,0-.85-.1-1.15-.29s-.51-.52-.64-.98c-.13-.46-.19-1.07-.18-1.84.01-.77.12-1.73.33-2.88l2.15-12.4h-2.9l.27-1.06,2.89-.39,1.76-4.54,1.96-.86.23.2-.94,5.2h4.5l-.39,1.13-.39.31h-3.95l-2.46,13.81c-.13.65-.09,1.12.14,1.39s.59.41,1.12.41c.63,0,1.23-.36,1.82-1.08.59-.72.95-1.67,1.08-2.87l.7.08Z"/>
        <path class="cls-2" d="M395.03,337.65c-.05.94-.24,1.82-.57,2.64s-.74,1.53-1.25,2.11c-.51.59-1.08,1.05-1.7,1.39-.63.34-1.25.51-1.88.51-.78,0-1.3-.49-1.56-1.47-.26-.98-.2-2.48.19-4.52l1.8-9.23c.05-.26.08-.54.1-.84.01-.3-.03-.58-.14-.84-.1-.26-.29-.47-.55-.63-.26-.16-.64-.23-1.14-.23-.86,0-1.73.51-2.62,1.53-.89,1.02-1.69,2.33-2.41,3.95-.72,1.62-1.33,3.44-1.84,5.46-.51,2.02-.82,4.05-.92,6.08l-2.97.47-.51-.43,4.5-24.77c.05-.24.09-.45.12-.65s.04-.38.04-.57c0-.44-.13-.79-.39-1.04s-.94-.37-2.03-.37l-.16-1.02,6.42-2.07.2.16c-.99,3.65-1.89,7.26-2.7,10.82s-1.55,7.17-2.23,10.82h.43c.39-1.38.89-2.74,1.49-4.07s1.28-2.52,2.04-3.56c.76-1.04,1.57-1.88,2.44-2.52.87-.64,1.78-.96,2.72-.96.6,0,1.14.1,1.62.29.48.2.87.52,1.15.98.29.46.46,1.05.53,1.78.06.73,0,1.62-.18,2.66l-1.96,10.21c-.23,1.2.05,1.8.86,1.8.42,0,.88-.35,1.39-1.06s.83-1.67.96-2.89l.7.08Z"/>
        <path class="cls-2" d="M405.75,337.65c-.05.94-.23,1.82-.53,2.64-.3.82-.68,1.53-1.15,2.11s-1,1.05-1.58,1.39c-.59.34-1.18.51-1.78.51-1.04,0-1.67-.48-1.88-1.45-.21-.96-.12-2.48.27-4.54l1.68-9.31c.08-.47.12-.85.12-1.13,0-.5-.16-.87-.47-1.12-.31-.25-1-.37-2.07-.37l-.2-.98,6.3-1.6.2.16-2.82,15.77c-.23,1.2.05,1.8.86,1.8.44,0,.91-.35,1.41-1.06s.81-1.67.94-2.89l.7.08ZM403.24,319.34c-.65,0-1.22-.23-1.7-.7s-.72-1.04-.72-1.72.24-1.25.72-1.72c.48-.47,1.05-.7,1.7-.7s1.25.23,1.72.7.7,1.04.7,1.72-.24,1.25-.7,1.72c-.47.47-1.04.7-1.72.7Z"/>
        <path class="cls-2" d="M427.31,337.65c-.05.94-.24,1.82-.57,2.64s-.74,1.53-1.25,2.11c-.51.59-1.08,1.05-1.7,1.39-.63.34-1.25.51-1.88.51-.78,0-1.31-.49-1.57-1.47s-.2-2.48.2-4.52l1.8-9.23c.05-.26.08-.54.1-.84.01-.3-.03-.58-.14-.84-.1-.26-.29-.47-.55-.63s-.64-.23-1.13-.23c-.99,0-1.96.51-2.89,1.53-.94,1.02-1.79,2.33-2.54,3.95-.76,1.62-1.39,3.44-1.9,5.46-.51,2.02-.82,4.05-.92,6.08l-2.97.47-.51-.43,2.66-14.09c.05-.23.09-.45.12-.64.03-.2.04-.39.04-.57,0-.44-.13-.79-.39-1.04-.26-.25-.94-.37-2.03-.37l-.16-1.02,6.57-2.07.19.16c-.68,1.77-1.28,3.57-1.8,5.4-.52,1.83-1,3.68-1.45,5.56h.43c.39-1.38.89-2.74,1.49-4.07s1.29-2.52,2.07-3.56c.78-1.04,1.64-1.88,2.58-2.52.94-.64,1.94-.96,3.01-.96.6,0,1.14.1,1.62.29.48.2.87.52,1.15.98.29.46.46,1.05.53,1.78.06.73,0,1.62-.18,2.66l-1.96,10.21c-.24,1.2.05,1.8.86,1.8.42,0,.88-.35,1.39-1.06.51-.7.83-1.67.96-2.89l.7.08Z"/>
        <path class="cls-2" d="M435.48,344.03c-.24.08-.48.14-.72.2-.25.05-.5.08-.76.08-.99,0-1.77-.33-2.33-.98-.56-.65-.97-1.45-1.23-2.41s-.38-1.96-.37-3.03c.01-1.07.11-2.02.29-2.86.31-1.49.84-2.91,1.58-4.26.74-1.36,1.6-2.55,2.58-3.58s2.04-1.85,3.19-2.47c1.15-.61,2.29-.92,3.44-.92.13,0,.46.01,1,.04.53.03,1.09.13,1.66.31l2.82-.63.2.12-3.91,21.44c-.26,1.41-.63,2.74-1.1,3.99s-1.08,2.34-1.84,3.27c-.76.93-1.68,1.66-2.76,2.19s-2.34.8-3.78.8c-.68,0-1.4-.1-2.17-.29-.77-.2-1.48-.48-2.13-.84s-1.19-.83-1.6-1.39c-.42-.56-.63-1.22-.63-1.98s.32-1.52.96-2.21c.64-.69,1.41-1.31,2.33-1.86.91-.55,1.85-1.02,2.82-1.41.96-.39,1.79-.69,2.47-.9v-.43ZM441.7,334.91c-.39,1.2-.84,2.35-1.35,3.44-.51,1.09-1.08,2.09-1.7,2.97-.65,1.1-1.44,2.07-2.37,2.93s-1.83,1.64-2.72,2.35-1.67,1.36-2.35,1.96c-.68.6-1.1,1.2-1.25,1.8-.13.55-.12,1.04.04,1.49.16.44.42.81.8,1.11s.83.53,1.35.68c.52.16,1.08.24,1.68.24,1.41,0,2.46-.3,3.17-.9s1.23-1.36,1.57-2.27c.94-2.5,1.66-5.05,2.15-7.65.5-2.6,1.02-5.31,1.57-8.16h-.59ZM443.11,325.05c-1.49,0-2.81.35-3.97,1.04-1.16.69-2.16,1.59-3.01,2.7-.85,1.11-1.52,2.37-2.01,3.8-.5,1.42-.82,2.86-.98,4.32-.05.63-.05,1.21,0,1.76.05.55.16,1.04.33,1.47s.42.77.74,1.02c.33.25.72.37,1.19.37.52,0,1.02-.18,1.51-.53s.95-.83,1.41-1.43c.46-.6.88-1.3,1.27-2.09.39-.8.77-1.62,1.13-2.48.39-.96.75-1.96,1.08-2.97.33-1.02.61-1.97.84-2.86.23-.89.42-1.67.57-2.37.14-.69.24-1.19.29-1.51l-.39-.23Z"/>
        <path class="cls-2" d="M452.46,344.3c-.6,0-1.13-.23-1.6-.69-.47-.46-.7-1-.7-1.62s.24-1.17.7-1.62c.47-.46,1-.68,1.6-.68s1.17.23,1.62.68.68,1,.68,1.62-.23,1.17-.68,1.62c-.46.46-1,.69-1.62.69Z"/>
      </g>
      <g>
        <path class="cls-2" d="M249.54,0c3.57,1.09,5.9,3.75,5.9,7.73v141.83c0,4.33-3.23,7.42-7.28,7.41s-7.26-3.09-7.26-7.41V7.1C240.91,3.37,243.67,1.08,246.78,0h2.76Z"/>
        <path class="cls-2" d="M275.7,130.34c-3.98.09-7.42-2.84-7.42-6.87l-.03-89.4c0-4.22,3.2-7.37,7.14-7.44s7.44,3.11,7.44,7.44l-.03,89.4c0,3.91-3.24,6.78-7.09,6.87Z"/>
        <path class="cls-2" d="M330.44,130.34c-3.98.1-7.43-2.82-7.43-6.87l-.03-89.4c0-4.23,3.18-7.39,7.18-7.44s7.36,3.01,7.36,7.21l-.02,89.53c0,3.92-3.14,6.86-7.06,6.97Z"/>
        <path class="cls-2" d="M220.92,117.05c-3.98.05-7.34-2.9-7.34-6.91l-.02-63.13c0-4.14,3.57-7.14,7.35-7.09s7.17,3.15,7.17,7.32l-.02,62.77c0,4-3.14,6.98-7.14,7.04Z"/>
        <path class="cls-2" d="M357.29,0c-3.57,1.09-5.9,3.75-5.9,7.73v141.83c0,4.33,3.23,7.42,7.28,7.41s7.26-3.09,7.26-7.41V7.1C365.92,3.37,363.16,1.08,360.05,0h-2.76Z"/>
        <path class="cls-2" d="M385.91,117.05c3.98.05,7.34-2.9,7.34-6.91l.02-63.13c0-4.14-3.57-7.14-7.35-7.09s-7.17,3.15-7.17,7.32l.02,62.77c0,4,3.14,6.98,7.14,7.04Z"/>
        <path class="cls-2" d="M303.23,103.75c-4.1.18-7.54-2.8-7.55-6.89l-.06-36.12c0-4.15,3.01-7.36,7-7.51s7.54,2.94,7.53,7.19l-.03,36.45c0,3.83-3.06,6.72-6.89,6.89Z"/>
      </g>
    </g>
  </g>
</svg>